#!OML:ASF H:\Terrain\Walking\May29\JustinRory\Justin.ASF
:FULLY-SPECIFIED
:DEGREES
359
root 13.728 17.1876 25.4666 159.415 -79.7731 -149.659
lowerback 20.6767 -7.63176 -5.70218
upperback 5.63299 -11.5371 -1.11107
thorax -4.36835 -5.78904 4.64059
lowerneck -15.6558 16.7532 -5.56176
upperneck 16.1968 25.3295 -8.31294
head 8.03432 10.6874 1.00064
rclavicle 1.66184e-013 3.49861e-014
rhumerus -7.95931 -29.6841 -79.922
rradius 72.3266
rwrist -66.4825
rhand -15.0659 384.069
rfingers 7.12502
rthumb 11.1012 -5.61732
lclavicle 1.66184e-013 3.49861e-014
lhumerus 48.1394 -68.2546 82.7039
lradius 29.1971
lwrist -2.2319
lhand 9.96359 54.8795
lfingers 7.12502
lthumb 35.0918 81.4141
rfemur -20.8568 0.819669 10.0275
rtibia 38.9451
rfoot -21.8254 -0.903328
rtoes -25.3625
lfemur -24.581 19.6237 1.28796
ltibia 59.4625
lfoot -14.4915 2.24767
ltoes -27.6431
360
root 13.7346 17.1752 25.5644 157.568 -80.5291 -147.816
lowerback 20.5651 -7.99966 -4.43707
upperback 5.48591 -11.8256 -2.25491
thorax -4.94957 -5.8906 2.87081
lowerneck -15.4834 16.7495 -4.35307
upperneck 16.2691 24.975 -7.69867
head 8.0725 10.6726 0.995735
rclavicle -4.77083e-014 -6.67916e-014
rhumerus -9.41463 -31.2862 -80.4957
rradius 72.5128
rwrist -66.1255
rhand -14.189 383.649
rfingers 7.12502
rthumb 11.9468 -5.98972
lclavicle -4.77083e-014 -6.67916e-014
lhumerus 45.5808 -69.6921 83.7892
lradius 29.8754
lwrist -1.8888
lhand 9.01213 53.9664
lfingers 7.12502
lthumb 34.1888 80.708
rfemur -20.4233 0.501421 9.64048
rtibia 38.5817
rfoot -21.5916 -1.69823
rtoes -26.082
lfemur -25.0095 20.4835 0.843515
ltibia 58.8706
lfoot -15.9433 1.58754
ltoes -26.8269
361
root 13.7429 17.1676 25.6618 154.186 -81.0495 -144.389
lowerback 20.333 -8.126 -4.32974
upperback 5.52121 -11.9463 -2.21877
thorax -4.79714 -5.95605 2.83719
lowerneck -15.634 16.8049 -4.41705
upperneck 16.0517 25.0582 -7.70382
head 8.01881 10.7245 1.01296
rclavicle -1.36764e-013 8.26944e-014
rhumerus -9.62285 -31.8674 -80.212
rradius 72.5802
rwrist -66.1023
rhand -13.8702 383.692
rfingers 7.12502
rthumb 12.2543 -5.92886
lclavicle -1.36764e-013 8.26944e-014
lhumerus 43.5127 -69.5745 86.0933
lradius 30.2143
lwrist -2.43003
lhand 11.0315 52.9676
lfingers 7.12502
lthumb 36.104 79.2585
rfemur -20.0359 0.406988 9.5903
rtibia 38.1737
rfoot -21.4651 -2.56861
rtoes -26.8388
lfemur -25.613 21.6217 0.667539
ltibia 58.5644
lfoot -16.7742 1.07558
ltoes -27.6611
362
root 13.7486 17.1625 25.7666 151.476 -81.6676 -141.622
lowerback 20.1241 -8.32558 -4.42495
upperback 5.53155 -12.2032 -2.16452
thorax -4.62931 -6.08687 2.95909
lowerneck -15.7918 16.9381 -4.599
upperneck 15.7427 25.2789 -7.82415
head 7.94088 10.8287 1.02175
rclavicle 8.90555e-014 3.49861e-014
rhumerus -9.67694 -32.1017 -79.9559
rradius 72.7633
rwrist -66.5702
rhand -13.8892 383.577
rfingers 7.12502
rthumb 12.2359 -6.0447
lclavicle 8.90555e-014 3.49861e-014
lhumerus 40.9581 -68.9103 89.1698
lradius 30.2331
lwrist -3.61945
lhand 10.1377 53.0786
lfingers 7.12502
lthumb 35.2569 79.5743
rfemur -19.6772 0.171655 9.29497
rtibia 37.726
rfoot -21.2993 -3.38863
rtoes -27.771
lfemur -26.3464 22.516 0.180657
ltibia 58.5134
lfoot -17.4435 0.614391
ltoes -29.2081
363
root 13.7525 17.153 25.8723 146.698 -82.3238 -136.863
lowerback 20.031 -8.37728 -4.1875
upperback 5.59259 -12.2186 -2.23366
thorax -4.57906 -6.09758 2.74864
lowerneck -16.0334 16.7429 -4.20178
upperneck 15.7168 24.9786 -7.89159
head 8.02475 10.6956 0.949679
rclavicle 2.54444e-014 -6.36111e-015
rhumerus -9.91954 -32.9974 -79.4854
rradius 73.0749
rwrist -67.2346
rhand -13.9524 383.102
rfingers 7.12502
rthumb 12.175 -6.52409
lclavicle 2.54444e-014 -6.36111e-015
lhumerus 40.0184 -69.4969 90.419
lradius 30.4898
lwrist -4.03543
lhand 8.62095 53.2286
lfingers 7.12502
lthumb 33.8172 80.0527
rfemur -19.1235 -0.0843166 9.14915
rtibia 37.2155
rfoot -21.0588 -4.25642
rtoes -28.114
lfemur -27.1206 23.4068 -0.241588
ltibia 58.6766
lfoot -17.9541 0.262083
ltoes -30.0118
364
root 13.7585 17.147 25.9727 139.462 -82.5451 -129.603
lowerback 19.8942 -8.43033 -4.01374
upperback 5.72128 -12.2198 -1.94012
thorax -4.33792 -6.11252 2.92207
lowerneck -16.1782 16.8405 -4.24969
upperneck 15.3751 25.1622 -8.23859
head 7.98315 10.7671 0.876526
rclavicle -6.83819e-014 -5.725e-014
rhumerus -9.57853 -33.4599 -79.0238
rradius 73.2532
rwrist -67.6353
rhand -14.0967 382.553
rfingers 7.12502
rthumb 12.0358 -7.08058
lclavicle -6.83819e-014 -5.725e-014
lhumerus 41.5836 -70.1956 89.1227
lradius 30.923
lwrist -3.5786
lhand 6.68086 54.1476
lfingers 7.12502
lthumb 31.9719 81.3592
rfemur -18.5717 0.097366 9.48019
rtibia 36.6633
rfoot -20.7094 -5.33242
rtoes -28.5205
lfemur -27.9368 24.6081 -0.167527
ltibia 59.0473
lfoot -17.8975 -0.315712
ltoes -31.5677
365
root 13.7688 17.1392 26.0747 134.324 -82.643 -124.351
lowerback 19.6625 -8.55227 -4.82726
upperback 5.88128 -12.4676 -1.10715
thorax -3.66263 -6.27705 4.17146
lowerneck -17.2042 17.1286 -5.52013
upperneck 15.1602 25.9504 -8.56344
head 7.995 11.0023 1.08852
rclavicle -2.54444e-014 -4.13472e-014
rhumerus -8.08389 -32.8024 -78.759
rradius 73.2537
rwrist -68.1617
rhand -14.3079 382.111
rfingers 7.12502
rthumb 11.8322 -7.53442
lclavicle -2.54444e-014 -4.13472e-014
lhumerus 43.4546 -69.2996 88.1193
lradius 31.2821
lwrist -3.7799
lhand 5.04097 54.8919
lfingers 7.12502
lthumb 30.4091 82.4043
rfemur -18.2204 0.190782 9.56511
rtibia 36.105
rfoot -20.4622 -5.74252
rtoes -27.7984
lfemur -28.8519 25.6692 -0.328479
ltibia 59.5902
lfoot -17.9526 -1.12019
ltoes -31.0839
366
root 13.7808 17.1292 26.1871 130.093 -82.9659 -120.149
lowerback 19.9566 -8.30566 -6.82627
upperback 5.7574 -12.4702 0.458563
thorax -3.14664 -6.33649 6.85994
lowerneck -17.5571 17.2243 -7.17553
upperneck 14.7273 26.5825 -9.61938
head 7.8843 11.0951 1.04206
rclavicle 1.47896e-013 3.18055e-015
rhumerus -6.59197 -31.8447 -77.0703
rradius 73.1812
rwrist -69.1275
rhand -14.2687 381.271
rfingers 7.12502
rthumb 11.8701 -8.37299
lclavicle 1.47896e-013 3.18055e-015
lhumerus 43.5402 -67.7249 90.3815
lradius 31.537
lwrist -5.09757
lhand 5.75758 53.405
lfingers 7.12502
lthumb 31.0923 80.7888
rfemur -17.724 -0.18183 9.24852
rtibia 35.4637
rfoot -20.4501 -5.44041
rtoes -26.1409
lfemur -29.7474 26.5 -0.963197
ltibia 60.268
lfoot -18.1456 -1.57566
ltoes -28.0021
367
root 13.792 17.1152 26.3015 126.09 -82.9877 -116.079
lowerback 19.246 -8.96499 -4.52305
upperback 5.85288 -12.9397 -1.53938
thorax -3.6064 -6.50046 3.59535
lowerneck -17.1394 17.3565 -5.22909
upperneck 14.4576 26.1297 -8.73675
head 7.80977 11.1589 0.989657
rclavicle -1.78111e-013 4.77083e-014
rhumerus -7.88164 -33.5719 -78.9238
rradius 73.4083
rwrist -68.6583
rhand -12.7348 380.152
rfingers 7.12502
rthumb 13.3489 -9.40038
lclavicle -1.78111e-013 4.77083e-014
lhumerus 42.567 -69.4456 88.4294
lradius 32.2698
lwrist -5.42735
lhand 9.25079 49.7974
lfingers 7.12502
lthumb 34.4154 76.488
rfemur -17.3428 -0.415449 9.13145
rtibia 34.718
rfoot -20.1628 -5.6597
rtoes -26.3745
lfemur -30.7849 27.7229 -1.55499
ltibia 61.0271
lfoot -17.8979 -1.41287
ltoes -28.0133
368
root 13.8032 17.1049 26.4143 123.967 -82.6875 -113.597
lowerback 19.0099 -8.66717 -5.22557
upperback 5.4852 -12.617 -0.745143
thorax -3.56724 -6.33761 4.6978
lowerneck -16.6228 17.4557 -5.84196
upperneck 14.2184 26.3575 -9.13616
head 7.63537 11.2291 0.904975
rclavicle 2.78299e-014 -5.08889e-014
rhumerus -7.26325 -35.0164 -77.4688
rradius 72.8189
rwrist -65.082
rhand -10.0914 377.571
rfingers 7.12502
rthumb 15.8957 -11.7971
lclavicle 2.78299e-014 -5.08889e-014
lhumerus 43.3015 -69.5988 88.7015
lradius 32.7708
lwrist -6.36171
lhand 5.23625 53.8482
lfingers 7.12502
lthumb 30.5953 81.326
rfemur -17.309 -0.272497 9.19086
rtibia 33.8823
rfoot -19.4823 -6.4617
rtoes -27.2069
lfemur -32.1038 29.1609 -2.14324
ltibia 61.7851
lfoot -17.7736 -0.970739
ltoes -30.2129
369
root 13.8181 17.0959 26.5275 121.247 -82.4452 -110.737
lowerback 18.8033 -8.36525 -6.30017
upperback 5.45062 -12.3611 0.238747
thorax -3.06615 -6.25617 6.17355
lowerneck -17.1472 17.3381 -6.67285
upperneck 14.2339 26.5476 -9.86095
head 7.74606 11.149 0.860601
rclavicle 1.59028e-015 -1.90833e-014
rhumerus -5.58303 -35.6426 -76.6475
rradius 72.0834
rwrist -63.9734
rhand -10.4786 376.295
rfingers 7.12502
rthumb 15.5227 -13.1015
lclavicle 1.59028e-015 -1.90833e-014
lhumerus 44.6064 -69.1165 88.6855
lradius 33.4587
lwrist -8.04319
lhand 5.89582 53.4472
lfingers 7.12502
lthumb 31.224 80.8057
rfemur -16.9632 0.0581181 9.21342
rtibia 32.9307
rfoot -18.8655 -7.15719
rtoes -27.1436
lfemur -33.2142 30.3604 -2.71093
ltibia 62.4252
lfoot -18.2606 -0.797464
ltoes -31.7867
